# AST/ASF file generated using VICON BodyLanguage
# -----------------------------------------------
:version 1.10
:name VICON
:units
  mass 1.0
  length 0.45
  angle deg
:documentation
   .ast/.asf automatically generated from VICON data using
   VICON BodyBuilder and BodyLanguage model FoxedUp or BRILLIANT.MOD
:root
   order TX TY TZ RX RY RZ
   axis XYZ
   position 0 0 0  
   orientation 0 0 0 
:bonedata
  begin
     id 1 
     name lhipjoint
     direction 0.547975 -0.797114 0.253638 
     length 2.36201 
     axis 0 0 0  XYZ
  end
  begin
     id 2 
     name lfemur
     direction 0.34202 -0.939693 0  
     length 7.69075  
     axis 0 0 20  XYZ
    dof rx ry rz
    limits (-160.0 20.0)
           (-70.0 70.0)
           (-60.0 70.0)
  end
  begin
     id 3 
     name ltibia
     direction 0.34202 -0.939693 0   
     length 7.91399   
     axis 0 0 20   XYZ
    dof rx
    limits (-10.0 170.0)
  end
  begin
     id 4 
     name lfoot
     direction 0.0705293 -0.193778 0.978507   
     length 2.13618   
     axis -90 7.62852e-016 20   XYZ
    dof rx rz
    limits (-45.0 90.0)
           (-70.0 20.0)
  end
  begin
     id 5 
     name ltoes
     direction 1.53592e-011 -4.21925e-011 1   
     length 1.07518   
     axis -90 7.62852e-016 20   XYZ
    dof rx
    limits (-90.0 20.0)
  end
  begin
     id 6 
     name rhipjoint
     direction -0.57 -0.782963 0.249136   
     length 2.4047  
     axis 0 0 0  XYZ 
  end
  begin
     id 7 
     name rfemur
     direction -0.34202 -0.939693 0   
     length 7.51486   
     axis 0 0 -20   XYZ
    dof rx ry rz
    limits (-160.0 20.0)
           (-70.0 70.0)
           (-70.0 60.0)
  end
  begin
     id 8 
     name rtibia
     direction -0.34202 -0.939693 0   
     length 8.08317   
     axis 0 0 -20   XYZ
    dof rx
    limits (-10.0 170.0)
 end
 begin
     id 9 
     name rfoot
     direction -0.104954 -0.281256 0.953876   
     length 2.30343  
     axis -90 -7.62852e-016 -20   XYZ
    dof rx rz
    limits (-45.0 90.0)
           (-20.0 70.0)
  end
  begin
     id 10 
     name rtoes
     direction -1.53556e-011 -4.21922e-011 1   
     length 1.14803   
     axis -90 -7.62852e-016 -20   XYZ
    dof rx
    limits (-90.0 20.0)
  end
  begin
     id 11 
     name lowerback
     direction -0.0152855 0.99353 -0.11254   
     length 2.05311   
     axis 0 0 0   XYZ
    dof rx ry rz
    limits (-20.0 45.0)
           (-30.0 30.0)
           (-30.0 30.0)
  end
  begin
     id 12 
     name upperback
     direction -0.00157509 0.999443 -0.033332   
     length 2.06353   
     axis 0 0 0   XYZ
    dof rx ry rz
    limits (-20.0 45.0)
           (-30.0 30.0)
           (-30.0 30.0)
  end
  begin
     id 13 
     name thorax
     direction 0.00577788 0.999804 0.0189484   
     length 2.08472   
     axis 0 0 0   XYZ
    dof rx ry rz
    limits (-20.0 45.0)
           (-30.0 30.0)
           (-30.0 30.0)
  end
  begin
     id 14 
     name lowerneck
     direction -1.09301e-005 0.994719 0.10264   
     length 1.76249   
     axis 0 0 0   XYZ
    dof rx ry rz
    limits (-20.0 45.0)
           (-30.0 30.0)
           (-30.0 30.0)
  end
  begin
     id 15 
     name upperneck
     direction 0.0495018 0.988526 -0.142706   
     length 1.77897   
     axis 0 0 0   XYZ
    dof rx ry rz
    limits (-20.0 45.0)
           (-30.0 30.0)
           (-30.0 30.0)
  end
  begin
     id 16
     name head
     direction 0.0142736 0.998114 -0.0597101  
     length 1.78934  
     axis 0 0 0   XYZ
    dof rx ry rz
    limits (-20.0 45.0)
           (-30.0 30.0)
           (-30.0 30.0)
  end
  begin
     id 17 
     name lclavicle
     direction 0.918111 0.396107 -0.0130883  
     length 3.37276  
     axis 0 0 0   XYZ
    dof ry rz
    limits (-20.0 10.0)
           (0.0 20.0)
  end
  begin
     id 18 
     name lhumerus
     direction 1 -4.48975e-011 -3.26108e-027   
     length 5.34298   
     axis 180 -30 -90   XYZ
    dof rx ry rz
    limits (-60.0 90.0)
           (-90.0 90.0)
           (-90.0 90.0)
  end
  begin
     id 19
     name lradius
     direction 1 -4.48964e-011 -8.84413e-028   
     length 3.67262   
     axis 180 -30 -90   XYZ
    dof rx
    limits (-10.0 170.0)
  end
  begin
     id 20
     name lwrist
     direction 1 -4.48991e-011 -1.24264e-027   
     length 1.83631   
     axis -2.17013e-015 90 90   XYZ
    dof ry
    limits (-180.0 0.0)
 end
  begin
     id 21 
     name lhand
     direction 1 -4.48855e-011 -2.48528e-027   
     length 0.599298   
     axis 1.58582e-015 90 90   XYZ
    dof rx rz
    limits (-90.0 90.0)
           (-45.0 45.0)
  end
  begin
     id 22 
     name lfingers
     direction 1 -4.48811e-011 -4.97056e-027   
     length 0.48317   
     axis 3.17164e-015 90 90   XYZ
    dof rx
    limits (0.0 90.0)
  end
  begin
     id 23
     name lthumb
     direction 0.707107 -6.34882e-011 0.707107   
     length 0.693738   
     axis -90 45 2.85299e-015   XYZ
    dof rx rz
    limits (-45.0 45.0)
           (-45.0 45.0)
  end
  begin
     id 24 
     name rclavicle
     direction -0.920511 0.384752 -0.0680135   
     length 3.43787  
     axis 0 0 0   XYZ 
    dof ry rz
    limits (-10.0 20.0)
           (-20.0 0.0)
  end
  begin
     id 25 
     name rhumerus
     direction -0.999976 -0.00330524 0.00603274  
     length 5.5498   
     axis 180 30 90   XYZ
    dof rx ry rz
    limits (-90.0 60.0)
           (-90.0 90.0)
           (-90.0 90.0)
  end
  begin
     id 26 
     name rradius
     direction -1 -4.48967e-011 8.62438e-027   
     length 3.69401   
     axis 180 30 90   XYZ
    dof rx
    limits (-10.0 170.0)
  end
  begin
     id 27 
     name rwrist
     direction -1 -4.4897e-011 9.54866e-027   
     length 1.84701   
     axis -7.69462e-015 -90 -90   XYZ
    dof ry
    limits (-180.0 0.0)
  end
  begin
     id 28
     name rhand
     direction -1 -4.48982e-011 1.90973e-026   
     length 0.638113   
     axis -1.21857e-014 -90 -90   XYZ
    dof rx rz
    limits (-90.0 90.0)
           (-45.0 45.0)
  end
  begin
     id 29
     name rfingers
     direction -1 -4.48936e-011 3.81946e-026   
     length 0.514463   
     axis -2.43714e-014 -90 -90   XYZ
    dof rx
    limits (0.0 90.0)
  end
  begin
     id 30
     name rthumb
     direction -0.707107 -6.34942e-011 0.707107   
     length 0.738669   
     axis -90 -45 -2.85299e-015   XYZ
    dof rx rz
    limits (-45.0 45.0)
           (-45.0 45.0)
  end
:hierarchy
  begin
    root lhipjoint rhipjoint lowerback
    lhipjoint lfemur
    lfemur ltibia
    ltibia lfoot
    lfoot ltoes
    rhipjoint rfemur
    rfemur rtibia
    rtibia rfoot
    rfoot rtoes
    lowerback upperback
    upperback thorax
    thorax lowerneck lclavicle rclavicle
    lowerneck upperneck
    upperneck head
    lclavicle lhumerus
    lhumerus lradius
    lradius lwrist
    lwrist lhand lthumb
    lhand lfingers
    rclavicle rhumerus
    rhumerus rradius
    rradius rwrist
    rwrist rhand rthumb
    rhand rfingers
  end

#!OML:ASF F:\twosubjects\two\Thursday\Session 1\Rory.ASF
:FULLY-SPECIFIED
:DEGREES
185
root 9.44558 13.3517 5.13016 -136.08 -85.7737 114.871
lowerback 38.7685 1.79333 -1.83448
upperback 14.3077 -0.651822 -1.15492
thorax -3.06687 -1.24217 0.00981469
lowerneck -13.7731 -3.55796 -8.18794
upperneck 30.5785 -5.85544 6.38496
head 12.9162 -2.98842 2.94343
rclavicle -9.29318e-015 -2.5345e-015
rhumerus 1.84204 19.9476 -84.207
rradius 57.9796
rwrist 17.2941
rhand -33.0037 36.358
rfingers 7.12502
rthumb -6.21781 6.4693
lclavicle -9.29318e-015 -2.5345e-015
lhumerus 5.69544 -30.0396 75.6006
lradius 55.0577
lwrist -20.4915
lhand -22.8649 34.0325
lfingers 7.12502
lthumb 3.57355 63.9822
rfemur -48.962 -9.39889 8.24895
rtibia 64.29
rfoot 9.70311 -3.62867
rtoes -2.23991
lfemur -46.9525 6.12637 -12.6827
ltibia 60.7812
lfoot 9.69018 3.32275
ltoes 28.245
186
root 9.4355 13.3474 5.1294 -135.591 -85.7123 114.412
lowerback 38.5728 1.81846 -2.04115
upperback 14.3113 -0.673561 -1.06289
thorax -2.99843 -1.26318 0.219345
lowerneck -13.725 -3.61925 -8.59121
upperneck 30.7318 -5.91744 6.55013
head 12.997 -3.0476 3.07191
rclavicle 2.33572e-015 -7.10655e-015
rhumerus 1.98091 19.7546 -84.627
rradius 57.4161
rwrist 18.053
rhand -33.0294 36.6899
rfingers 7.12502
rthumb -6.24256 6.8019
lclavicle 2.33572e-015 -7.10655e-015
lhumerus 5.69546 -29.9892 75.7855
lradius 54.9032
lwrist -20.2198
lhand -23.1568 33.7326
lfingers 7.12502
lthumb 3.29165 63.687
rfemur -49.0497 -9.43013 8.18852
rtibia 64.3858
rfoot 9.64807 -3.62712
rtoes -1.98457
lfemur -46.9574 6.1799 -12.8688
ltibia 60.7898
lfoot 9.79198 3.05939
ltoes 25.5973
187
root 9.41611 13.3395 5.12739 -135.248 -85.7475 114.077
lowerback 38.3751 1.83446 -2.00915
upperback 14.3372 -0.625635 -1.04147
thorax -2.90821 -1.23725 0.206787
lowerneck -13.697 -3.72517 -8.69077
upperneck 30.9215 -6.12466 6.69132
head 13.1003 -3.13851 3.11582
rclavicle -3.8266e-015 -1.11319e-014
rhumerus 2.1622 19.7421 -84.1229
rradius 57.2467
rwrist 17.456
rhand -32.7953 37.3893
rfingers 7.12502
rthumb -6.0166 7.49476
lclavicle -3.8266e-015 -1.11319e-014
lhumerus 5.83673 -30.5067 75.6205
lradius 54.8983
lwrist -19.8349
lhand -23.3068 33.4154
lfingers 7.12502
lthumb 3.14684 63.3719
rfemur -49.1116 -9.56241 8.20271
rtibia 64.5024
rfoot 9.61556 -3.47688
rtoes -2.47001
lfemur -46.9386 6.3917 -13.2305
ltibia 60.7268
lfoot 10.0522 2.70711
ltoes 20.618
188
root 9.42053 13.3554 5.12832 -134.909 -85.767 113.787
lowerback 38.2494 1.84722 -2.00028
upperback 14.2762 -0.587799 -1.08145
thorax -2.93638 -1.20835 0.147486
lowerneck -13.6072 -3.79126 -8.7208
upperneck 31.1328 -6.35439 6.96958
head 13.2049 -3.21835 3.19954
rclavicle 7.82715e-015 1.69961e-014
rhumerus 2.1703 19.8326 -83.7368
rradius 57.2098
rwrist 16.7821
rhand -32.7127 37.776
rfingers 7.12502
rthumb -5.93687 7.87916
lclavicle 7.82715e-015 1.69961e-014
lhumerus 5.89368 -30.9039 75.4769
lradius 54.926
lwrist -19.9028
lhand -23.6228 32.8587
lfingers 7.12502
lthumb 2.84162 62.8196
rfemur -49.1342 -9.76916 8.26336
rtibia 64.49
rfoot 9.62164 -3.30863
rtoes -2.64261
lfemur -46.9427 5.95043 -12.9119
ltibia 60.7901
lfoot 9.74398 4.06504
ltoes 28.9442
189
root 9.41936 13.3573 5.12671 -135.136 -85.8495 114.009
lowerback 38.1792 1.8646 -2.0557
upperback 14.1883 -0.565681 -1.07601
thorax -3.01041 -1.19144 0.175462
lowerneck -13.5669 -3.84927 -8.78825
upperneck 31.4695 -6.62404 7.37195
head 13.3862 -3.30786 3.33549
rclavicle -3.32964e-015 1.2424e-014
rhumerus 2.10091 20.1129 -83.5134
rradius 57.1775
rwrist 16.3134
rhand -33.1908 37.6777
rfingers 7.12502
rthumb -6.39841 7.79438
lclavicle -3.32964e-015 1.2424e-014
lhumerus 5.81575 -30.9349 75.6038
lradius 54.756
lwrist -20.2199
lhand -24.2605 32.47
lfingers 7.12502
lthumb 2.22576 62.4382
rfemur -49.1012 -9.86282 8.35559
rtibia 64.4939
rfoot 9.61871 -3.43196
rtoes -1.88777
lfemur -46.9506 5.68822 -12.702
ltibia 60.8438
lfoot 9.6452 4.38685
ltoes 30.459
190
root 9.41573 13.3573 5.12684 -137.17 -86.0812 115.884
lowerback 38.1932 1.79545 -1.88146
upperback 14.2034 -0.586105 -0.98122
thorax -2.99843 -1.20075 0.191857
lowerneck -13.6093 -3.94592 -9.06787
upperneck 31.6781 -6.85118 7.74554
head 13.538 -3.39985 3.50198
rclavicle -2.70844e-015 -3.62782e-015
rhumerus 2.20066 20.2789 -83.6363
rradius 56.9298
rwrist 16.3599
rhand -33.6833 37.3133
rfingers 7.12502
rthumb -6.87381 7.4449
lclavicle -2.70844e-015 -3.62782e-015
lhumerus 5.80233 -30.8675 75.8032
lradius 54.5154
lwrist -20.309
lhand -24.5407 32.7574
lfingers 7.12502
lthumb 1.95517 62.7282
rfemur -48.8441 -9.83047 8.5852
rtibia 64.4672
rfoot 9.59207 -3.58921
rtoes -1.7951
lfemur -46.818 5.62791 -12.4713
ltibia 60.8977
lfoot 9.58929 4.45705
ltoes 30.2677
191
root 9.41726 13.3557 5.12709 -139.467 -86.0489 118.055
lowerback 38.2214 1.82047 -1.83743
upperback 14.1866 -0.543599 -0.994772
thorax -3.02675 -1.17833 0.140771
lowerneck -13.248 -4.08272 -9.29221
upperneck 31.4856 -7.13163 8.09392
head 13.4332 -3.51545 3.63562
rclavicle -9.49197e-015 -1.56543e-014
rhumerus 2.33421 20.2733 -83.9101
rradius 56.5732
rwrist 16.5263
rhand -34.1847 36.8717
rfingers 7.12502
rthumb -7.35786 7.01963
lclavicle -9.49197e-015 -1.56543e-014
lhumerus 5.79218 -30.9316 75.8541
lradius 54.3753
lwrist -20.2759
lhand -24.4728 32.7505
lfingers 7.12502
lthumb 2.02076 62.7206
rfemur -48.8041 -9.64796 8.72195
rtibia 64.4941
rfoot 9.66419 -3.43002
rtoes -3.92028
lfemur -46.6922 5.70867 -12.3845
ltibia 60.922
lfoot 9.34114 6.13285
ltoes 36.2374
192
root 9.42821 13.362 5.13079 -138.634 -85.7872 117.173
lowerback 38.1121 1.94287 -2.07691
upperback 14.1901 -0.480683 -1.12437
thorax -2.98834 -1.15117 0.106062
lowerneck -12.7322 -4.23612 -9.29236
upperneck 31.2388 -7.52515 8.48026
head 13.2788 -3.65629 3.72739
rclavicle 3.52843e-015 -1.2921e-015
rhumerus 2.49349 20.1542 -84.0817
rradius 56.1852
rwrist 16.5708
rhand -34.7751 36.7259
rfingers 7.12502
rthumb -7.92774 6.8946
lclavicle 3.52843e-015 -1.2921e-015
lhumerus 5.94882 -31.0827 75.7726
lradius 54.1525
lwrist -20.2621
lhand -24.3511 32.396
lfingers 7.12502
lthumb 2.1383 62.365
rfemur -49.002 -9.73563 8.68157
rtibia 64.513
rfoot 9.93197 -2.58684
rtoes -9.3609
lfemur -46.5831 5.67952 -12.5863
ltibia 60.924
lfoot 9.13392 1.4238
ltoes 16.8735
193
root 9.4141 13.3452 5.13631 -137.811 -85.7018 116.341
lowerback 37.8393 2.00136 -2.18401
upperback 14.2678 -0.432198 -1.10586
thorax -2.81537 -1.13446 0.161416
lowerneck -12.5702 -4.39896 -9.69736
upperneck 31.2806 -7.87477 9.01274
head 13.3496 -3.80182 3.96007
rclavicle -7.65321e-015 -2.68359e-015
rhumerus 2.7673 20.0489 -83.9715
rradius 55.8385
rwrist 16.5611
rhand -34.7801 36.6856
rfingers 7.12502
rthumb -7.93257 6.8544
lclavicle -7.65321e-015 -2.68359e-015
lhumerus 6.24848 -31.263 75.7966
lradius 53.8476
lwrist -20.3054
lhand -24.1136 31.967
lfingers 7.12502
lthumb 2.36766 61.9336
rfemur -48.8652 -9.72148 8.37885
rtibia 64.5365
rfoot 9.67335 -2.89265
rtoes -4.76375
lfemur -46.6323 5.76943 -12.85
ltibia 60.9807
lfoot 6.34397 -3.76042
ltoes -7.36949
194
root 9.42907 13.3619 5.13737 -137.255 -85.544 115.749
lowerback 37.6044 2.10396 -2.41372
upperback 14.3316 -0.376232 -1.11126
thorax -2.66889 -1.11899 0.253313
lowerneck -12.4786 -4.5495 -10.0625
upperneck 31.3784 -8.19759 9.47724
head 13.4557 -3.93863 4.16439
rclavicle 5.41688e-015 -4.07509e-015
rhumerus 3.04413 20.0575 -83.85
rradius 55.5482
rwrist 16.4495
rhand -34.4492 36.537
rfingers 7.12502
rthumb -7.61312 6.694
lclavicle 5.41688e-015 -4.07509e-015
lhumerus 6.3008 -31.3898 75.8252
lradius 53.7227
lwrist -20.3821
lhand -23.8644 31.9552
lfingers 7.12502
lthumb 2.60836 61.919
rfemur -48.7443 -9.57076 8.16985
rtibia 64.4597
rfoot 9.59296 -3.28825
rtoes -2.05513
lfemur -46.5562 5.49418 -12.6644
ltibia 61.0824
lfoot 6.47302 -3.57829
ltoes -3.42852
